<svg height="36" preserveAspectRatio="xMidYMid meet" viewBox="0 0 36 36" width="36" xmlns="http://www.w3.org/2000/svg"><path d="m27 22v-8a2 2 0 0 0 -2-2h-14a2 2 0 0 0 -2 2v8a2 2 0 0 0 2 2h14a2 2 0 0 0 2-2zm-16-8h14v8h-14z"/><path d="m19 6h4v2h-4z"/><path d="m25.01 6h1.97v2h-1.97z"/><path d="m5.8 8h11.07v-2h-11l1.91-1.92a1 1 0 0 0 0-1.42 1 1 0 0 0 -1.41 0l-4.37 4.34 4.37 4.4a1 1 0 0 0 1.41 0 1 1 0 0 0 0-1.41z"/><path d="m29.61 24.68a1 1 0 0 0 -1.41 0 1 1 0 0 0 0 1.42l1.9 1.9h-11.1v2h11.2l-2 2a1 1 0 0 0 0 1.41 1 1 0 0 0 .7.29 1 1 0 0 0 .71-.29l4.39-4.36z"/><path d="m13 28h4v2h-4z"/><path d="m9 28h1.97v2h-1.97z"/><path d="m0 0h36v36h-36z" fill="none"/></svg>