<svg height="36" preserveAspectRatio="xMidYMid meet" viewBox="0 0 36 36" width="36" xmlns="http://www.w3.org/2000/svg"><path d="m33.49 26.28a1 1 0 0 0 -1.2-.7l-2.49.67a14.23 14.23 0 0 0 2.4-6.75 14.48 14.48 0 0 0 -4.83-12.15 1 1 0 0 0 -1.37.09 1 1 0 0 0 .09 1.41 12.45 12.45 0 0 1 4.16 10.46 12.19 12.19 0 0 1 -2 5.74l-.25-2.51a1 1 0 1 0 -1.95.16l.5 6.44 6.25-1.66a1 1 0 0 0 .69-1.2z"/><path d="m4.31 17.08a1.06 1.06 0 0 0 .44.16 1 1 0 0 0 1.12-.85 12.21 12.21 0 0 1 12.82-10.55l-2.24 1.53a1 1 0 0 0 .47 1.79 1 1 0 0 0 .64-.16l5.33-3.66-4.56-4.58a1 1 0 1 0 -1.39 1.38l1.7 1.7a14.2 14.2 0 0 0 -14.75 12.28 1 1 0 0 0 .42.96z"/><path d="m21.73 29.93a12 12 0 0 1 -4.84.51 12.3 12.3 0 0 1 -9.57-6.3l2.49.93a1 1 0 0 0 .69-1.84l-4.59-1.7-1.47-.53-1.11 6.35a1 1 0 0 0 .79 1.13h.17a1 1 0 0 0 1-.81l.42-2.4a14.3 14.3 0 0 0 11 7.14 13.91 13.91 0 0 0 5.63-.6 1 1 0 0 0 -.6-1.9z"/><path d="m22 13h-8a1 1 0 0 0 -1 1v8a1 1 0 0 0 1 1h8a1 1 0 0 0 1-1v-8a1 1 0 0 0 -1-1zm-1 8h-6v-6h6z"/><path d="m0 0h36v36h-36z" fill="none"/></svg>